<svg width="120" height="120" viewBox="0 0 150 150" fill="none" xmlns="http://www.w3.org/2000/svg">
<circle cx="75" cy="75" r="75" fill="black"/>
<path d="M82.4733 34.6259L125.715 46.2126C127.212 46.6137 127.988 48.2663 127.339 49.6739L100.049 108.882C99.145 110.844 99.1307 113.1 100.01 115.074L102.851 121.452C103.707 123.373 101.952 125.428 99.9207 124.884L65.6671 115.706C63.6162 115.156 63.1408 112.462 64.8797 111.243L70.5782 107.251C72.3963 105.977 73.5567 103.963 73.747 101.751L79.3355 36.8263C79.4689 35.2763 80.9706 34.2232 82.4733 34.6259Z" fill="white" fill-opacity="0.6" stroke="black" stroke-width="5"/>
<path d="M16.798 47.0256L57.3711 28.1061C58.7758 27.4511 60.4318 28.2188 60.8396 29.7141L77.9929 92.6115C78.5613 94.6956 80.0007 96.4334 81.9426 97.3799L88.2189 100.439C90.1097 101.361 90.0865 104.063 88.1801 104.952L56.0407 119.939C54.1164 120.836 52.0202 119.078 52.5692 117.027L54.3682 110.305C54.9421 108.161 54.5366 105.873 53.2608 104.056L15.8087 50.7282C14.9146 49.455 15.388 47.6831 16.798 47.0256Z" fill="white" fill-opacity="0.58" stroke="black" stroke-width="5"/>
</svg>
